{
 "cells": [
  {
   "cell_type": "markdown",
   "id": "e3b44478",
   "metadata": {},
   "source": [
    "# P2: More FFMPeg\n",
    "* Student full name: Ariadna Cortés Puig\n",
    "* Student email: ariadna.cortes01@estudiant.upf.edu"
   ]
  },
  {
   "cell_type": "code",
   "execution_count": 4,
   "id": "58c729ba",
   "metadata": {},
   "outputs": [],
   "source": [
    "import ffmpy\n",
    "import ffmpeg"
   ]
  },
  {
   "cell_type": "markdown",
   "id": "15c41131",
   "metadata": {},
   "source": [
    "Per fer tots els exercicis d'aquesta pràctica 2, he volgut fer servir lineas de comande pero en python. Per fer aixo he utilitzat ffmpy i aquest és un wrapper de Python per a FFmpeg. Compila la línia d'ordres FFmpeg a partir dels  arguments passats i les seves opcions i l'executa mitjançant el subprocés de Python(.run).\n",
    "\n",
    "La funció es descriu al seguent enllaç: https://ffmpy.readthedocs.io/en/latest/ .  Un altre enllaç d'interes utilitzat duran la pràctica respecta la implementació de les diferentes modificacions al video BBB:  https://ffmpeg.org/ffmpeg-codecs.html#Codec-Options"
   ]
  },
  {
   "cell_type": "markdown",
   "id": "e9a645f9",
   "metadata": {},
   "source": [
    "Aquesta pràctica estarem modificant el video BBB (Big Buck Bunny). Adjuntare a aquest fitxer el resultat de cada exercici ja que tarden uns segons en fer-se . "
   ]
  },
  {
   "cell_type": "markdown",
   "id": "f5cc24f3",
   "metadata": {},
   "source": [
    "## Exercise 1."
   ]
  },
  {
   "cell_type": "markdown",
   "id": "7f5f0065",
   "metadata": {},
   "source": [
    "**Create a script which can cut N seconds\n",
    "the BBB video. That N seconds will be read\n",
    "from user input.**\n",
    "\n",
    "Per aquest exercici utilitzo dos parametres, el més important és _-ss_ que ens extraura una porcio de video, aquesta marcara l'inici del tall. Després el paramtre _-to_ ens servirà per especificar el temps fins el final de tall. \n"
   ]
  },
  {
   "cell_type": "code",
   "execution_count": 5,
   "id": "4c279255",
   "metadata": {},
   "outputs": [
    {
     "name": "stderr",
     "output_type": "stream",
     "text": [
      "ffmpeg version N-104465-g08a501946f-tessus  https://evermeet.cx/ffmpeg/  Copyright (c) 2000-2021 the FFmpeg developers\n",
      "  built with Apple clang version 11.0.0 (clang-1100.0.33.17)\n",
      "  configuration: --cc=/usr/bin/clang --prefix=/opt/ffmpeg --extra-version=tessus --enable-avisynth --enable-fontconfig --enable-gpl --enable-libaom --enable-libass --enable-libbluray --enable-libdav1d --enable-libfreetype --enable-libgsm --enable-libmodplug --enable-libmp3lame --enable-libmysofa --enable-libopencore-amrnb --enable-libopencore-amrwb --enable-libopenh264 --enable-libopenjpeg --enable-libopus --enable-librubberband --enable-libshine --enable-libsnappy --enable-libsoxr --enable-libspeex --enable-libtheora --enable-libtwolame --enable-libvidstab --enable-libvmaf --enable-libvo-amrwbenc --enable-libvorbis --enable-libvpx --enable-libwebp --enable-libx264 --enable-libx265 --enable-libxavs --enable-libxvid --enable-libzimg --enable-libzmq --enable-libzvbi --enable-version3 --pkg-config-flags=--static --disable-ffplay\n",
      "  libavutil      57.  7.100 / 57.  7.100\n",
      "  libavcodec     59. 12.100 / 59. 12.100\n",
      "  libavformat    59.  8.100 / 59.  8.100\n",
      "  libavdevice    59.  0.101 / 59.  0.101\n",
      "  libavfilter     8. 16.101 /  8. 16.101\n",
      "  libswscale      6.  1.100 /  6.  1.100\n",
      "  libswresample   4.  0.100 /  4.  0.100\n",
      "  libpostproc    56.  0.100 / 56.  0.100\n",
      "Input #0, mov,mp4,m4a,3gp,3g2,mj2, from 'input.mp4':\n",
      "  Metadata:\n",
      "    major_brand     : isom\n",
      "    minor_version   : 512\n",
      "    compatible_brands: isomiso2avc1mp41\n",
      "    encoder         : Lavf58.29.100\n",
      "  Duration: 00:09:56.57, start: 0.000000, bitrate: 1195 kb/s\n",
      "  Stream #0:0[0x1](und): Video: h264 (Main) (avc1 / 0x31637661), yuv420p(tv, bt709, progressive), 1280x720 [SAR 1:1 DAR 16:9], 806 kb/s, 24 fps, 24 tbr, 90k tbn (default)\n",
      "    Metadata:\n",
      "      handler_name    : VideoHandler\n",
      "      vendor_id       : [0][0][0][0]\n",
      "  Stream #0:1[0x2](und): Audio: aac (LC) (mp4a / 0x6134706D), 48000 Hz, 5.1, fltp, 383 kb/s (default)\n",
      "    Metadata:\n",
      "      handler_name    : SoundHandler\n",
      "      vendor_id       : [0][0][0][0]\n",
      "Stream mapping:\n",
      "  Stream #0:0 -> #0:0 (h264 (native) -> h264 (libx264))\n",
      "  Stream #0:1 -> #0:1 (aac (native) -> aac (native))\n",
      "Press [q] to stop, [?] for help\n",
      "[libx264 @ 0x7f7dd9707780] using SAR=1/1\n",
      "[libx264 @ 0x7f7dd9707780] using cpu capabilities: MMX2 SSE2Fast SSSE3 SSE4.2 AVX FMA3 BMI2 AVX2\n",
      "[libx264 @ 0x7f7dd9707780] profile High, level 3.1, 4:2:0, 8-bit\n",
      "[libx264 @ 0x7f7dd9707780] 264 - core 164 r3075 66a5bc1 - H.264/MPEG-4 AVC codec - Copyleft 2003-2021 - http://www.videolan.org/x264.html - options: cabac=1 ref=3 deblock=1:0:0 analyse=0x3:0x113 me=hex subme=7 psy=1 psy_rd=1.00:0.00 mixed_ref=1 me_range=16 chroma_me=1 trellis=1 8x8dct=1 cqm=0 deadzone=21,11 fast_pskip=1 chroma_qp_offset=-2 threads=6 lookahead_threads=1 sliced_threads=0 nr=0 decimate=1 interlaced=0 bluray_compat=0 constrained_intra=0 bframes=3 b_pyramid=2 b_adapt=1 b_bias=0 direct=1 weightb=1 open_gop=0 weightp=2 keyint=250 keyint_min=24 scenecut=40 intra_refresh=0 rc_lookahead=40 rc=crf mbtree=1 crf=23.0 qcomp=0.60 qpmin=0 qpmax=69 qpstep=4 ip_ratio=1.40 aq=1:1.00\n",
      "Output #0, mp4, to 'EX1_output.mp4':\n",
      "  Metadata:\n",
      "    major_brand     : isom\n",
      "    minor_version   : 512\n",
      "    compatible_brands: isomiso2avc1mp41\n",
      "    encoder         : Lavf59.8.100\n",
      "  Stream #0:0(und): Video: h264 (avc1 / 0x31637661), yuv420p(tv, bt709, progressive), 1280x720 [SAR 1:1 DAR 16:9], q=2-31, 24 fps, 12288 tbn (default)\n",
      "    Metadata:\n",
      "      handler_name    : VideoHandler\n",
      "      vendor_id       : [0][0][0][0]\n",
      "      encoder         : Lavc59.12.100 libx264\n",
      "    Side data:\n",
      "      cpb: bitrate max/min/avg: 0/0/0 buffer size: 0 vbv_delay: N/A\n",
      "  Stream #0:1(und): Audio: aac (LC) (mp4a / 0x6134706D), 48000 Hz, 5.1, fltp, 341 kb/s (default)\n",
      "    Metadata:\n",
      "      handler_name    : SoundHandler\n",
      "      vendor_id       : [0][0][0][0]\n",
      "      encoder         : Lavc59.12.100 aac\n",
      "frame=  720 fps= 21 q=-1.0 Lsize=    6124kB time=00:00:30.01 bitrate=1671.5kbits/s dup=1 drop=0 speed=0.858x    \n",
      "video:4849kB audio:1254kB subtitle:0kB other streams:0kB global headers:0kB muxing overhead: 0.353003%\n",
      "[libx264 @ 0x7f7dd9707780] frame I:6     Avg QP:14.09  size:105617\n",
      "[libx264 @ 0x7f7dd9707780] frame P:219   Avg QP:20.26  size: 15473\n",
      "[libx264 @ 0x7f7dd9707780] frame B:495   Avg QP:24.49  size:  1904\n",
      "[libx264 @ 0x7f7dd9707780] consecutive B-frames:  4.2%  9.4%  9.2% 77.2%\n",
      "[libx264 @ 0x7f7dd9707780] mb I  I16..4: 42.1% 19.2% 38.7%\n",
      "[libx264 @ 0x7f7dd9707780] mb P  I16..4:  3.2%  7.4%  0.6%  P16..4: 28.5% 11.9%  8.7%  0.0%  0.0%    skip:39.7%\n",
      "[libx264 @ 0x7f7dd9707780] mb B  I16..4:  0.9%  0.4%  0.0%  B16..8: 29.7%  1.5%  0.2%  direct: 1.1%  skip:66.2%  L0:45.8% L1:48.5% BI: 5.7%\n",
      "[libx264 @ 0x7f7dd9707780] 8x8 transform intra:52.2% inter:53.2%\n",
      "[libx264 @ 0x7f7dd9707780] coded y,uvDC,uvAC intra: 21.5% 32.1% 12.0% inter: 6.8% 8.7% 1.1%\n",
      "[libx264 @ 0x7f7dd9707780] i16 v,h,dc,p: 58% 22%  9% 12%\n",
      "[libx264 @ 0x7f7dd9707780] i8 v,h,dc,ddl,ddr,vr,hd,vl,hu: 26% 14% 48%  1%  2%  2%  2%  2%  2%\n",
      "[libx264 @ 0x7f7dd9707780] i4 v,h,dc,ddl,ddr,vr,hd,vl,hu: 20% 16% 15%  7%  9%  9%  8%  8%  8%\n",
      "[libx264 @ 0x7f7dd9707780] i8c dc,h,v,p: 63% 19% 13%  5%\n",
      "[libx264 @ 0x7f7dd9707780] Weighted P-Frames: Y:11.4% UV:7.3%\n",
      "[libx264 @ 0x7f7dd9707780] ref P L0: 65.3% 15.2% 15.1%  4.3%  0.1%\n",
      "[libx264 @ 0x7f7dd9707780] ref B L0: 87.3% 10.6%  2.1%\n",
      "[libx264 @ 0x7f7dd9707780] ref B L1: 94.8%  5.2%\n",
      "[libx264 @ 0x7f7dd9707780] kb/s:1323.90\n",
      "[aac @ 0x7f7ddaa060c0] Qavg: 1360.669\n"
     ]
    },
    {
     "data": {
      "text/plain": [
       "(None, None)"
      ]
     },
     "execution_count": 5,
     "metadata": {},
     "output_type": "execute_result"
    }
   ],
   "source": [
    "N= 30 #seconds\n",
    "ff = ffmpy.FFmpeg(\n",
    "        inputs={'input.mp4': None},\n",
    "        outputs={'EX1_output.mp4': '-ss 00:00:00 -to 00:00:'+str(N)+''}\n",
    "    )\n",
    "ff.cmd\n",
    "ff.run()"
   ]
  },
  {
   "cell_type": "markdown",
   "id": "f9878774",
   "metadata": {},
   "source": [
    "## Exercise 2."
   ]
  },
  {
   "cell_type": "markdown",
   "id": "94b281f3",
   "metadata": {},
   "source": [
    "**Create a script which will extract the YUV\n",
    "histogram from the previous BBB video you’ve\n",
    "done and create a new video with both images\n",
    "at the same time.**\n",
    "\n",
    "Per aquest exercici utilitzo el parametre _-vf_. He tret la opció de fer la superposició al video de: https://trac.ffmpeg.org/wiki/Histogram"
   ]
  },
  {
   "cell_type": "code",
   "execution_count": 6,
   "id": "0eb756a7",
   "metadata": {},
   "outputs": [
    {
     "name": "stderr",
     "output_type": "stream",
     "text": [
      "ffmpeg version N-104465-g08a501946f-tessus  https://evermeet.cx/ffmpeg/  Copyright (c) 2000-2021 the FFmpeg developers\n",
      "  built with Apple clang version 11.0.0 (clang-1100.0.33.17)\n",
      "  configuration: --cc=/usr/bin/clang --prefix=/opt/ffmpeg --extra-version=tessus --enable-avisynth --enable-fontconfig --enable-gpl --enable-libaom --enable-libass --enable-libbluray --enable-libdav1d --enable-libfreetype --enable-libgsm --enable-libmodplug --enable-libmp3lame --enable-libmysofa --enable-libopencore-amrnb --enable-libopencore-amrwb --enable-libopenh264 --enable-libopenjpeg --enable-libopus --enable-librubberband --enable-libshine --enable-libsnappy --enable-libsoxr --enable-libspeex --enable-libtheora --enable-libtwolame --enable-libvidstab --enable-libvmaf --enable-libvo-amrwbenc --enable-libvorbis --enable-libvpx --enable-libwebp --enable-libx264 --enable-libx265 --enable-libxavs --enable-libxvid --enable-libzimg --enable-libzmq --enable-libzvbi --enable-version3 --pkg-config-flags=--static --disable-ffplay\n",
      "  libavutil      57.  7.100 / 57.  7.100\n",
      "  libavcodec     59. 12.100 / 59. 12.100\n",
      "  libavformat    59.  8.100 / 59.  8.100\n",
      "  libavdevice    59.  0.101 / 59.  0.101\n",
      "  libavfilter     8. 16.101 /  8. 16.101\n",
      "  libswscale      6.  1.100 /  6.  1.100\n",
      "  libswresample   4.  0.100 /  4.  0.100\n",
      "  libpostproc    56.  0.100 / 56.  0.100\n",
      "Input #0, mov,mp4,m4a,3gp,3g2,mj2, from 'EX1_output.mp4':\n",
      "  Metadata:\n",
      "    major_brand     : isom\n",
      "    minor_version   : 512\n",
      "    compatible_brands: isomiso2avc1mp41\n",
      "    encoder         : Lavf59.8.100\n",
      "  Duration: 00:00:30.00, start: 0.000000, bitrate: 1672 kb/s\n",
      "  Stream #0:0[0x1](und): Video: h264 (High) (avc1 / 0x31637661), yuv420p(tv, bt709, progressive), 1280x720 [SAR 1:1 DAR 16:9], 1324 kb/s, 24 fps, 24 tbr, 12288 tbn (default)\n",
      "    Metadata:\n",
      "      handler_name    : VideoHandler\n",
      "      vendor_id       : [0][0][0][0]\n",
      "  Stream #0:1[0x2](und): Audio: aac (LC) (mp4a / 0x6134706D), 48000 Hz, 5.1, fltp, 342 kb/s (default)\n",
      "    Metadata:\n",
      "      handler_name    : SoundHandler\n",
      "      vendor_id       : [0][0][0][0]\n",
      "Stream mapping:\n",
      "  Stream #0:0 -> #0:0 (h264 (native) -> h264 (libx264))\n",
      "  Stream #0:1 -> #0:1 (aac (native) -> aac (native))\n",
      "Press [q] to stop, [?] for help\n",
      "[libx264 @ 0x7f964cf07480] using SAR=1/1\n",
      "[libx264 @ 0x7f964cf07480] using cpu capabilities: MMX2 SSE2Fast SSSE3 SSE4.2 AVX FMA3 BMI2 AVX2\n",
      "[libx264 @ 0x7f964cf07480] profile High, level 3.1, 4:2:0, 8-bit\n",
      "[libx264 @ 0x7f964cf07480] 264 - core 164 r3075 66a5bc1 - H.264/MPEG-4 AVC codec - Copyleft 2003-2021 - http://www.videolan.org/x264.html - options: cabac=1 ref=3 deblock=1:0:0 analyse=0x3:0x113 me=hex subme=7 psy=1 psy_rd=1.00:0.00 mixed_ref=1 me_range=16 chroma_me=1 trellis=1 8x8dct=1 cqm=0 deadzone=21,11 fast_pskip=1 chroma_qp_offset=-2 threads=6 lookahead_threads=1 sliced_threads=0 nr=0 decimate=1 interlaced=0 bluray_compat=0 constrained_intra=0 bframes=3 b_pyramid=2 b_adapt=1 b_bias=0 direct=1 weightb=1 open_gop=0 weightp=2 keyint=250 keyint_min=24 scenecut=40 intra_refresh=0 rc_lookahead=40 rc=crf mbtree=1 crf=23.0 qcomp=0.60 qpmin=0 qpmax=69 qpstep=4 ip_ratio=1.40 aq=1:1.00\n",
      "Output #0, mp4, to 'EX2_output.mp4':\n",
      "  Metadata:\n",
      "    major_brand     : isom\n",
      "    minor_version   : 512\n",
      "    compatible_brands: isomiso2avc1mp41\n",
      "    encoder         : Lavf59.8.100\n",
      "  Stream #0:0(und): Video: h264 (avc1 / 0x31637661), yuv420p(tv, bt709, progressive), 1280x720 [SAR 1:1 DAR 16:9], q=2-31, 24 fps, 12288 tbn (default)\n",
      "    Metadata:\n",
      "      handler_name    : VideoHandler\n",
      "      vendor_id       : [0][0][0][0]\n",
      "      encoder         : Lavc59.12.100 libx264\n",
      "    Side data:\n",
      "      cpb: bitrate max/min/avg: 0/0/0 buffer size: 0 vbv_delay: N/A\n",
      "  Stream #0:1(und): Audio: aac (LC) (mp4a / 0x6134706D), 48000 Hz, 5.1, fltp, 341 kb/s (default)\n",
      "    Metadata:\n",
      "      handler_name    : SoundHandler\n",
      "      vendor_id       : [0][0][0][0]\n",
      "      encoder         : Lavc59.12.100 aac\n",
      "frame=  720 fps= 27 q=-1.0 Lsize=    6220kB time=00:00:30.01 bitrate=1697.6kbits/s speed=1.13x    \n",
      "video:4944kB audio:1254kB subtitle:0kB other streams:0kB global headers:0kB muxing overhead: 0.348088%\n",
      "[libx264 @ 0x7f964cf07480] frame I:5     Avg QP:15.35  size:121326\n",
      "[libx264 @ 0x7f964cf07480] frame P:205   Avg QP:20.52  size: 15972\n",
      "[libx264 @ 0x7f964cf07480] frame B:510   Avg QP:25.96  size:  2316\n",
      "[libx264 @ 0x7f964cf07480] consecutive B-frames:  3.1%  4.4%  9.2% 83.3%\n",
      "[libx264 @ 0x7f964cf07480] mb I  I16..4: 32.8% 20.9% 46.3%\n",
      "[libx264 @ 0x7f964cf07480] mb P  I16..4:  3.3%  7.7%  0.8%  P16..4: 29.3% 12.7%  8.6%  0.0%  0.0%    skip:37.6%\n",
      "[libx264 @ 0x7f964cf07480] mb B  I16..4:  0.9%  0.4%  0.0%  B16..8: 28.5%  2.0%  0.4%  direct: 1.2%  skip:66.7%  L0:44.4% L1:50.3% BI: 5.3%\n",
      "[libx264 @ 0x7f964cf07480] 8x8 transform intra:52.9% inter:54.2%\n",
      "[libx264 @ 0x7f964cf07480] coded y,uvDC,uvAC intra: 22.7% 35.2% 12.9% inter: 6.5% 8.5% 0.9%\n",
      "[libx264 @ 0x7f964cf07480] i16 v,h,dc,p: 58% 23%  8% 10%\n",
      "[libx264 @ 0x7f964cf07480] i8 v,h,dc,ddl,ddr,vr,hd,vl,hu: 27% 14% 46%  2%  2%  2%  2%  2%  2%\n",
      "[libx264 @ 0x7f964cf07480] i4 v,h,dc,ddl,ddr,vr,hd,vl,hu: 24% 16% 15%  6%  8%  8%  7%  8%  7%\n",
      "[libx264 @ 0x7f964cf07480] i8c dc,h,v,p: 62% 20% 14%  5%\n",
      "[libx264 @ 0x7f964cf07480] Weighted P-Frames: Y:11.2% UV:6.3%\n",
      "[libx264 @ 0x7f964cf07480] ref P L0: 66.9% 14.9% 13.7%  4.4%  0.1%\n",
      "[libx264 @ 0x7f964cf07480] ref B L0: 87.9% 10.1%  2.0%\n",
      "[libx264 @ 0x7f964cf07480] ref B L1: 95.3%  4.7%\n",
      "[libx264 @ 0x7f964cf07480] kb/s:1349.91\n",
      "[aac @ 0x7f964cf08580] Qavg: 1438.293\n"
     ]
    },
    {
     "data": {
      "text/plain": [
       "(None, None)"
      ]
     },
     "execution_count": 6,
     "metadata": {},
     "output_type": "execute_result"
    }
   ],
   "source": [
    "ff = ffmpy.FFmpeg(\n",
    "        inputs={'EX1_output.mp4': None},\n",
    "        outputs={'EX2_output.mp4': '-vf \"split=2[a][b],[b]histogram,format=yuva444p[hh],[a][hh]overlay\"'}\n",
    "    )\n",
    "ff.cmd\n",
    "ff.run()"
   ]
  },
  {
   "cell_type": "markdown",
   "id": "79ef962b",
   "metadata": {},
   "source": [
    "## Exercise 3."
   ]
  },
  {
   "cell_type": "markdown",
   "id": "5156b2e8",
   "metadata": {},
   "source": [
    "**Create a script which can resize the BBB\n",
    "video into 4 differents video outputs (doesn’t\n",
    "need to be at the same time):**\n",
    "\n",
    "        ·720p (1280x720) ·480p (720x480) ·360x240 ·160x120\n",
    "\n",
    "Per fer l'exercici utilitzo el parametre _scale_ que realitzara una escalada de la qualitat del video. "
   ]
  },
  {
   "cell_type": "code",
   "execution_count": 7,
   "id": "d1d0f837",
   "metadata": {},
   "outputs": [
    {
     "name": "stderr",
     "output_type": "stream",
     "text": [
      "ffmpeg version N-104465-g08a501946f-tessus  https://evermeet.cx/ffmpeg/  Copyright (c) 2000-2021 the FFmpeg developers\n",
      "  built with Apple clang version 11.0.0 (clang-1100.0.33.17)\n",
      "  configuration: --cc=/usr/bin/clang --prefix=/opt/ffmpeg --extra-version=tessus --enable-avisynth --enable-fontconfig --enable-gpl --enable-libaom --enable-libass --enable-libbluray --enable-libdav1d --enable-libfreetype --enable-libgsm --enable-libmodplug --enable-libmp3lame --enable-libmysofa --enable-libopencore-amrnb --enable-libopencore-amrwb --enable-libopenh264 --enable-libopenjpeg --enable-libopus --enable-librubberband --enable-libshine --enable-libsnappy --enable-libsoxr --enable-libspeex --enable-libtheora --enable-libtwolame --enable-libvidstab --enable-libvmaf --enable-libvo-amrwbenc --enable-libvorbis --enable-libvpx --enable-libwebp --enable-libx264 --enable-libx265 --enable-libxavs --enable-libxvid --enable-libzimg --enable-libzmq --enable-libzvbi --enable-version3 --pkg-config-flags=--static --disable-ffplay\n",
      "  libavutil      57.  7.100 / 57.  7.100\n",
      "  libavcodec     59. 12.100 / 59. 12.100\n",
      "  libavformat    59.  8.100 / 59.  8.100\n",
      "  libavdevice    59.  0.101 / 59.  0.101\n",
      "  libavfilter     8. 16.101 /  8. 16.101\n",
      "  libswscale      6.  1.100 /  6.  1.100\n",
      "  libswresample   4.  0.100 /  4.  0.100\n",
      "  libpostproc    56.  0.100 / 56.  0.100\n",
      "Input #0, mov,mp4,m4a,3gp,3g2,mj2, from 'EX1_output.mp4':\n",
      "  Metadata:\n",
      "    major_brand     : isom\n",
      "    minor_version   : 512\n",
      "    compatible_brands: isomiso2avc1mp41\n",
      "    encoder         : Lavf59.8.100\n",
      "  Duration: 00:00:30.00, start: 0.000000, bitrate: 1672 kb/s\n",
      "  Stream #0:0[0x1](und): Video: h264 (High) (avc1 / 0x31637661), yuv420p(tv, bt709, progressive), 1280x720 [SAR 1:1 DAR 16:9], 1324 kb/s, 24 fps, 24 tbr, 12288 tbn (default)\n",
      "    Metadata:\n",
      "      handler_name    : VideoHandler\n",
      "      vendor_id       : [0][0][0][0]\n",
      "  Stream #0:1[0x2](und): Audio: aac (LC) (mp4a / 0x6134706D), 48000 Hz, 5.1, fltp, 342 kb/s (default)\n",
      "    Metadata:\n",
      "      handler_name    : SoundHandler\n",
      "      vendor_id       : [0][0][0][0]\n",
      "Stream mapping:\n",
      "  Stream #0:0 -> #0:0 (h264 (native) -> h264 (libx264))\n",
      "  Stream #0:1 -> #0:1 (aac (native) -> aac (native))\n",
      "Press [q] to stop, [?] for help\n",
      "[libx264 @ 0x7fd9e6716b00] using SAR=1/1\n",
      "[libx264 @ 0x7fd9e6716b00] using cpu capabilities: MMX2 SSE2Fast SSSE3 SSE4.2 AVX FMA3 BMI2 AVX2\n",
      "[libx264 @ 0x7fd9e6716b00] profile High, level 3.1, 4:2:0, 8-bit\n",
      "[libx264 @ 0x7fd9e6716b00] 264 - core 164 r3075 66a5bc1 - H.264/MPEG-4 AVC codec - Copyleft 2003-2021 - http://www.videolan.org/x264.html - options: cabac=1 ref=3 deblock=1:0:0 analyse=0x3:0x113 me=hex subme=7 psy=1 psy_rd=1.00:0.00 mixed_ref=1 me_range=16 chroma_me=1 trellis=1 8x8dct=1 cqm=0 deadzone=21,11 fast_pskip=1 chroma_qp_offset=-2 threads=6 lookahead_threads=1 sliced_threads=0 nr=0 decimate=1 interlaced=0 bluray_compat=0 constrained_intra=0 bframes=3 b_pyramid=2 b_adapt=1 b_bias=0 direct=1 weightb=1 open_gop=0 weightp=2 keyint=250 keyint_min=24 scenecut=40 intra_refresh=0 rc_lookahead=40 rc=crf mbtree=1 crf=23.0 qcomp=0.60 qpmin=0 qpmax=69 qpstep=4 ip_ratio=1.40 aq=1:1.00\n",
      "Output #0, mp4, to 'EX3_720.mp4':\n",
      "  Metadata:\n",
      "    major_brand     : isom\n",
      "    minor_version   : 512\n",
      "    compatible_brands: isomiso2avc1mp41\n",
      "    encoder         : Lavf59.8.100\n",
      "  Stream #0:0(und): Video: h264 (avc1 / 0x31637661), yuv420p(tv, bt709, progressive), 1280x720 [SAR 1:1 DAR 16:9], q=2-31, 24 fps, 12288 tbn (default)\n",
      "    Metadata:\n",
      "      handler_name    : VideoHandler\n",
      "      vendor_id       : [0][0][0][0]\n",
      "      encoder         : Lavc59.12.100 libx264\n",
      "    Side data:\n",
      "      cpb: bitrate max/min/avg: 0/0/0 buffer size: 0 vbv_delay: N/A\n",
      "  Stream #0:1(und): Audio: aac (LC) (mp4a / 0x6134706D), 48000 Hz, 5.1, fltp, 341 kb/s (default)\n",
      "    Metadata:\n",
      "      handler_name    : SoundHandler\n",
      "      vendor_id       : [0][0][0][0]\n",
      "      encoder         : Lavc59.12.100 aac\n",
      "frame=  720 fps= 27 q=-1.0 Lsize=    5808kB time=00:00:30.01 bitrate=1585.1kbits/s speed=1.13x    \n",
      "video:4532kB audio:1254kB subtitle:0kB other streams:0kB global headers:0kB muxing overhead: 0.372603%\n",
      "[libx264 @ 0x7fd9e6716b00] frame I:5     Avg QP:14.93  size:125643\n",
      "[libx264 @ 0x7fd9e6716b00] frame P:219   Avg QP:20.13  size: 14305\n",
      "[libx264 @ 0x7fd9e6716b00] frame B:496   Avg QP:24.37  size:  1772\n",
      "[libx264 @ 0x7fd9e6716b00] consecutive B-frames:  3.5% 11.1%  8.8% 76.7%\n",
      "[libx264 @ 0x7fd9e6716b00] mb I  I16..4: 33.0% 20.8% 46.2%\n",
      "[libx264 @ 0x7fd9e6716b00] mb P  I16..4:  3.0%  7.3%  0.6%  P16..4: 28.9% 11.6%  7.8%  0.0%  0.0%    skip:40.9%\n",
      "[libx264 @ 0x7fd9e6716b00] mb B  I16..4:  1.0%  0.4%  0.0%  B16..8: 28.6%  1.3%  0.1%  direct: 1.0%  skip:67.5%  L0:45.1% L1:49.7% BI: 5.2%\n",
      "[libx264 @ 0x7fd9e6716b00] 8x8 transform intra:52.3% inter:56.0%\n",
      "[libx264 @ 0x7fd9e6716b00] coded y,uvDC,uvAC intra: 21.8% 34.0% 12.2% inter: 6.2% 8.7% 0.9%\n",
      "[libx264 @ 0x7fd9e6716b00] i16 v,h,dc,p: 58% 22%  9% 11%\n",
      "[libx264 @ 0x7fd9e6716b00] i8 v,h,dc,ddl,ddr,vr,hd,vl,hu: 26% 15% 46%  2%  2%  2%  2%  2%  2%\n",
      "[libx264 @ 0x7fd9e6716b00] i4 v,h,dc,ddl,ddr,vr,hd,vl,hu: 20% 16% 15%  7%  9%  9%  8%  9%  8%\n",
      "[libx264 @ 0x7fd9e6716b00] i8c dc,h,v,p: 62% 19% 14%  5%\n",
      "[libx264 @ 0x7fd9e6716b00] Weighted P-Frames: Y:11.0% UV:7.3%\n",
      "[libx264 @ 0x7fd9e6716b00] ref P L0: 67.2% 15.4% 13.3%  3.9%  0.1%\n",
      "[libx264 @ 0x7fd9e6716b00] ref B L0: 88.3%  9.9%  1.9%\n",
      "[libx264 @ 0x7fd9e6716b00] ref B L1: 95.5%  4.5%\n",
      "[libx264 @ 0x7fd9e6716b00] kb/s:1237.40\n",
      "[aac @ 0x7fd9e6717c80] Qavg: 1438.293\n",
      "ffmpeg version N-104465-g08a501946f-tessus  https://evermeet.cx/ffmpeg/  Copyright (c) 2000-2021 the FFmpeg developers\n",
      "  built with Apple clang version 11.0.0 (clang-1100.0.33.17)\n",
      "  configuration: --cc=/usr/bin/clang --prefix=/opt/ffmpeg --extra-version=tessus --enable-avisynth --enable-fontconfig --enable-gpl --enable-libaom --enable-libass --enable-libbluray --enable-libdav1d --enable-libfreetype --enable-libgsm --enable-libmodplug --enable-libmp3lame --enable-libmysofa --enable-libopencore-amrnb --enable-libopencore-amrwb --enable-libopenh264 --enable-libopenjpeg --enable-libopus --enable-librubberband --enable-libshine --enable-libsnappy --enable-libsoxr --enable-libspeex --enable-libtheora --enable-libtwolame --enable-libvidstab --enable-libvmaf --enable-libvo-amrwbenc --enable-libvorbis --enable-libvpx --enable-libwebp --enable-libx264 --enable-libx265 --enable-libxavs --enable-libxvid --enable-libzimg --enable-libzmq --enable-libzvbi --enable-version3 --pkg-config-flags=--static --disable-ffplay\n",
      "  libavutil      57.  7.100 / 57.  7.100\n",
      "  libavcodec     59. 12.100 / 59. 12.100\n",
      "  libavformat    59.  8.100 / 59.  8.100\n",
      "  libavdevice    59.  0.101 / 59.  0.101\n",
      "  libavfilter     8. 16.101 /  8. 16.101\n",
      "  libswscale      6.  1.100 /  6.  1.100\n",
      "  libswresample   4.  0.100 /  4.  0.100\n",
      "  libpostproc    56.  0.100 / 56.  0.100\n",
      "Input #0, mov,mp4,m4a,3gp,3g2,mj2, from 'EX1_output.mp4':\n",
      "  Metadata:\n",
      "    major_brand     : isom\n",
      "    minor_version   : 512\n",
      "    compatible_brands: isomiso2avc1mp41\n",
      "    encoder         : Lavf59.8.100\n",
      "  Duration: 00:00:30.00, start: 0.000000, bitrate: 1672 kb/s\n",
      "  Stream #0:0[0x1](und): Video: h264 (High) (avc1 / 0x31637661), yuv420p(tv, bt709, progressive), 1280x720 [SAR 1:1 DAR 16:9], 1324 kb/s, 24 fps, 24 tbr, 12288 tbn (default)\n",
      "    Metadata:\n",
      "      handler_name    : VideoHandler\n",
      "      vendor_id       : [0][0][0][0]\n",
      "  Stream #0:1[0x2](und): Audio: aac (LC) (mp4a / 0x6134706D), 48000 Hz, 5.1, fltp, 342 kb/s (default)\n",
      "    Metadata:\n",
      "      handler_name    : SoundHandler\n",
      "      vendor_id       : [0][0][0][0]\n",
      "Stream mapping:\n",
      "  Stream #0:0 -> #0:0 (h264 (native) -> h264 (libx264))\n",
      "  Stream #0:1 -> #0:1 (aac (native) -> aac (native))\n",
      "Press [q] to stop, [?] for help\n",
      "[libx264 @ 0x7fc0e4005b00] using SAR=32/27\n",
      "[libx264 @ 0x7fc0e4005b00] using cpu capabilities: MMX2 SSE2Fast SSSE3 SSE4.2 AVX FMA3 BMI2 AVX2\n",
      "[libx264 @ 0x7fc0e4005b00] profile High, level 3.0, 4:2:0, 8-bit\n",
      "[libx264 @ 0x7fc0e4005b00] 264 - core 164 r3075 66a5bc1 - H.264/MPEG-4 AVC codec - Copyleft 2003-2021 - http://www.videolan.org/x264.html - options: cabac=1 ref=3 deblock=1:0:0 analyse=0x3:0x113 me=hex subme=7 psy=1 psy_rd=1.00:0.00 mixed_ref=1 me_range=16 chroma_me=1 trellis=1 8x8dct=1 cqm=0 deadzone=21,11 fast_pskip=1 chroma_qp_offset=-2 threads=6 lookahead_threads=1 sliced_threads=0 nr=0 decimate=1 interlaced=0 bluray_compat=0 constrained_intra=0 bframes=3 b_pyramid=2 b_adapt=1 b_bias=0 direct=1 weightb=1 open_gop=0 weightp=2 keyint=250 keyint_min=24 scenecut=40 intra_refresh=0 rc_lookahead=40 rc=crf mbtree=1 crf=23.0 qcomp=0.60 qpmin=0 qpmax=69 qpstep=4 ip_ratio=1.40 aq=1:1.00\n",
      "Output #0, mp4, to 'EX3_489.mp4':\n",
      "  Metadata:\n",
      "    major_brand     : isom\n",
      "    minor_version   : 512\n",
      "    compatible_brands: isomiso2avc1mp41\n",
      "    encoder         : Lavf59.8.100\n",
      "  Stream #0:0(und): Video: h264 (avc1 / 0x31637661), yuv420p(tv, bt709, progressive), 720x480 [SAR 32:27 DAR 16:9], q=2-31, 24 fps, 12288 tbn (default)\n",
      "    Metadata:\n",
      "      handler_name    : VideoHandler\n",
      "      vendor_id       : [0][0][0][0]\n",
      "      encoder         : Lavc59.12.100 libx264\n",
      "    Side data:\n",
      "      cpb: bitrate max/min/avg: 0/0/0 buffer size: 0 vbv_delay: N/A\n",
      "  Stream #0:1(und): Audio: aac (LC) (mp4a / 0x6134706D), 48000 Hz, 5.1, fltp, 341 kb/s (default)\n",
      "    Metadata:\n",
      "      handler_name    : SoundHandler\n",
      "      vendor_id       : [0][0][0][0]\n",
      "      encoder         : Lavc59.12.100 aac\n"
     ]
    },
    {
     "name": "stderr",
     "output_type": "stream",
     "text": [
      "frame=  720 fps= 48 q=-1.0 Lsize=    3859kB time=00:00:30.01 bitrate=1053.2kbits/s speed=2.02x    \n",
      "video:2584kB audio:1254kB subtitle:0kB other streams:0kB global headers:0kB muxing overhead: 0.549873%\n",
      "[libx264 @ 0x7fc0e4005b00] frame I:7     Avg QP:16.09  size: 46861\n",
      "[libx264 @ 0x7fc0e4005b00] frame P:255   Avg QP:21.55  size:  7902\n",
      "[libx264 @ 0x7fc0e4005b00] frame B:458   Avg QP:25.47  size:   659\n",
      "[libx264 @ 0x7fc0e4005b00] consecutive B-frames: 12.1%  6.7%  7.9% 73.3%\n",
      "[libx264 @ 0x7fc0e4005b00] mb I  I16..4: 21.1% 53.5% 25.4%\n",
      "[libx264 @ 0x7fc0e4005b00] mb P  I16..4:  1.7%  4.9%  0.4%  P16..4: 30.7% 15.5% 12.4%  0.0%  0.0%    skip:34.4%\n",
      "[libx264 @ 0x7fc0e4005b00] mb B  I16..4:  0.3%  0.6%  0.0%  B16..8: 26.3%  1.5%  0.2%  direct: 0.7%  skip:70.3%  L0:39.5% L1:54.3% BI: 6.2%\n",
      "[libx264 @ 0x7fc0e4005b00] 8x8 transform intra:64.6% inter:58.7%\n",
      "[libx264 @ 0x7fc0e4005b00] coded y,uvDC,uvAC intra: 27.6% 41.9% 20.9% inter: 10.1% 10.7% 1.8%\n",
      "[libx264 @ 0x7fc0e4005b00] i16 v,h,dc,p: 53% 24% 11% 12%\n",
      "[libx264 @ 0x7fc0e4005b00] i8 v,h,dc,ddl,ddr,vr,hd,vl,hu: 30% 15% 39%  2%  3%  3%  3%  3%  3%\n",
      "[libx264 @ 0x7fc0e4005b00] i4 v,h,dc,ddl,ddr,vr,hd,vl,hu: 20% 15% 15%  7%  9% 10%  8%  9%  8%\n",
      "[libx264 @ 0x7fc0e4005b00] i8c dc,h,v,p: 65% 17% 13%  5%\n",
      "[libx264 @ 0x7fc0e4005b00] Weighted P-Frames: Y:9.8% UV:6.3%\n",
      "[libx264 @ 0x7fc0e4005b00] ref P L0: 67.7% 12.5% 11.8%  7.8%  0.2%\n",
      "[libx264 @ 0x7fc0e4005b00] ref B L0: 85.2%  9.9%  5.0%\n",
      "[libx264 @ 0x7fc0e4005b00] ref B L1: 93.2%  6.8%\n",
      "[libx264 @ 0x7fc0e4005b00] kb/s:705.36\n",
      "[aac @ 0x7fc0e4006d80] Qavg: 1438.293\n",
      "ffmpeg version N-104465-g08a501946f-tessus  https://evermeet.cx/ffmpeg/  Copyright (c) 2000-2021 the FFmpeg developers\n",
      "  built with Apple clang version 11.0.0 (clang-1100.0.33.17)\n",
      "  configuration: --cc=/usr/bin/clang --prefix=/opt/ffmpeg --extra-version=tessus --enable-avisynth --enable-fontconfig --enable-gpl --enable-libaom --enable-libass --enable-libbluray --enable-libdav1d --enable-libfreetype --enable-libgsm --enable-libmodplug --enable-libmp3lame --enable-libmysofa --enable-libopencore-amrnb --enable-libopencore-amrwb --enable-libopenh264 --enable-libopenjpeg --enable-libopus --enable-librubberband --enable-libshine --enable-libsnappy --enable-libsoxr --enable-libspeex --enable-libtheora --enable-libtwolame --enable-libvidstab --enable-libvmaf --enable-libvo-amrwbenc --enable-libvorbis --enable-libvpx --enable-libwebp --enable-libx264 --enable-libx265 --enable-libxavs --enable-libxvid --enable-libzimg --enable-libzmq --enable-libzvbi --enable-version3 --pkg-config-flags=--static --disable-ffplay\n",
      "  libavutil      57.  7.100 / 57.  7.100\n",
      "  libavcodec     59. 12.100 / 59. 12.100\n",
      "  libavformat    59.  8.100 / 59.  8.100\n",
      "  libavdevice    59.  0.101 / 59.  0.101\n",
      "  libavfilter     8. 16.101 /  8. 16.101\n",
      "  libswscale      6.  1.100 /  6.  1.100\n",
      "  libswresample   4.  0.100 /  4.  0.100\n",
      "  libpostproc    56.  0.100 / 56.  0.100\n",
      "Input #0, mov,mp4,m4a,3gp,3g2,mj2, from 'EX1_output.mp4':\n",
      "  Metadata:\n",
      "    major_brand     : isom\n",
      "    minor_version   : 512\n",
      "    compatible_brands: isomiso2avc1mp41\n",
      "    encoder         : Lavf59.8.100\n",
      "  Duration: 00:00:30.00, start: 0.000000, bitrate: 1672 kb/s\n",
      "  Stream #0:0[0x1](und): Video: h264 (High) (avc1 / 0x31637661), yuv420p(tv, bt709, progressive), 1280x720 [SAR 1:1 DAR 16:9], 1324 kb/s, 24 fps, 24 tbr, 12288 tbn (default)\n",
      "    Metadata:\n",
      "      handler_name    : VideoHandler\n",
      "      vendor_id       : [0][0][0][0]\n",
      "  Stream #0:1[0x2](und): Audio: aac (LC) (mp4a / 0x6134706D), 48000 Hz, 5.1, fltp, 342 kb/s (default)\n",
      "    Metadata:\n",
      "      handler_name    : SoundHandler\n",
      "      vendor_id       : [0][0][0][0]\n",
      "Stream mapping:\n",
      "  Stream #0:0 -> #0:0 (h264 (native) -> h264 (libx264))\n",
      "  Stream #0:1 -> #0:1 (aac (native) -> aac (native))\n",
      "Press [q] to stop, [?] for help\n",
      "[libx264 @ 0x7f96f9707180] using SAR=32/27\n",
      "[libx264 @ 0x7f96f9707180] using cpu capabilities: MMX2 SSE2Fast SSSE3 SSE4.2 AVX FMA3 BMI2 AVX2\n",
      "[libx264 @ 0x7f96f9707180] profile High, level 1.3, 4:2:0, 8-bit\n",
      "[libx264 @ 0x7f96f9707180] 264 - core 164 r3075 66a5bc1 - H.264/MPEG-4 AVC codec - Copyleft 2003-2021 - http://www.videolan.org/x264.html - options: cabac=1 ref=3 deblock=1:0:0 analyse=0x3:0x113 me=hex subme=7 psy=1 psy_rd=1.00:0.00 mixed_ref=1 me_range=16 chroma_me=1 trellis=1 8x8dct=1 cqm=0 deadzone=21,11 fast_pskip=1 chroma_qp_offset=-2 threads=6 lookahead_threads=1 sliced_threads=0 nr=0 decimate=1 interlaced=0 bluray_compat=0 constrained_intra=0 bframes=3 b_pyramid=2 b_adapt=1 b_bias=0 direct=1 weightb=1 open_gop=0 weightp=2 keyint=250 keyint_min=24 scenecut=40 intra_refresh=0 rc_lookahead=40 rc=crf mbtree=1 crf=23.0 qcomp=0.60 qpmin=0 qpmax=69 qpstep=4 ip_ratio=1.40 aq=1:1.00\n",
      "Output #0, mp4, to 'EX3_360x240.mp4':\n",
      "  Metadata:\n",
      "    major_brand     : isom\n",
      "    minor_version   : 512\n",
      "    compatible_brands: isomiso2avc1mp41\n",
      "    encoder         : Lavf59.8.100\n",
      "  Stream #0:0(und): Video: h264 (avc1 / 0x31637661), yuv420p(tv, bt709, progressive), 360x240 [SAR 32:27 DAR 16:9], q=2-31, 24 fps, 12288 tbn (default)\n",
      "    Metadata:\n",
      "      handler_name    : VideoHandler\n",
      "      vendor_id       : [0][0][0][0]\n",
      "      encoder         : Lavc59.12.100 libx264\n",
      "    Side data:\n",
      "      cpb: bitrate max/min/avg: 0/0/0 buffer size: 0 vbv_delay: N/A\n",
      "  Stream #0:1(und): Audio: aac (LC) (mp4a / 0x6134706D), 48000 Hz, 5.1, fltp, 341 kb/s (default)\n",
      "    Metadata:\n",
      "      handler_name    : SoundHandler\n",
      "      vendor_id       : [0][0][0][0]\n",
      "      encoder         : Lavc59.12.100 aac\n",
      "frame=  720 fps=121 q=-1.0 Lsize=    2106kB time=00:00:30.01 bitrate= 574.8kbits/s speed=5.06x    \n",
      "video:831kB audio:1254kB subtitle:0kB other streams:0kB global headers:0kB muxing overhead: 1.007270%\n",
      "[libx264 @ 0x7f96f9707180] frame I:6     Avg QP:16.44  size: 17943\n",
      "[libx264 @ 0x7f96f9707180] frame P:269   Avg QP:22.28  size:  2478\n",
      "[libx264 @ 0x7f96f9707180] frame B:445   Avg QP:25.66  size:   170\n",
      "[libx264 @ 0x7f96f9707180] consecutive B-frames: 13.9%  8.6%  7.5% 70.0%\n",
      "[libx264 @ 0x7f96f9707180] mb I  I16..4: 24.4% 37.4% 38.1%\n",
      "[libx264 @ 0x7f96f9707180] mb P  I16..4:  1.0%  2.6%  0.4%  P16..4: 32.6% 15.2% 12.4%  0.0%  0.0%    skip:35.8%\n",
      "[libx264 @ 0x7f96f9707180] mb B  I16..4:  0.3%  0.3%  0.1%  B16..8: 23.5%  1.4%  0.3%  direct: 0.5%  skip:73.6%  L0:33.7% L1:60.1% BI: 6.2%\n",
      "[libx264 @ 0x7f96f9707180] 8x8 transform intra:54.9% inter:53.5%\n",
      "[libx264 @ 0x7f96f9707180] coded y,uvDC,uvAC intra: 35.1% 50.2% 30.5% inter: 11.5% 10.7% 3.7%\n",
      "[libx264 @ 0x7f96f9707180] i16 v,h,dc,p: 55% 21% 13% 11%\n",
      "[libx264 @ 0x7f96f9707180] i8 v,h,dc,ddl,ddr,vr,hd,vl,hu: 20% 15% 44%  3%  4%  4%  4%  3%  4%\n",
      "[libx264 @ 0x7f96f9707180] i4 v,h,dc,ddl,ddr,vr,hd,vl,hu: 15% 19% 15%  7%  9%  8%  9%  9%  9%\n",
      "[libx264 @ 0x7f96f9707180] i8c dc,h,v,p: 63% 19% 12%  6%\n",
      "[libx264 @ 0x7f96f9707180] Weighted P-Frames: Y:11.5% UV:5.9%\n",
      "[libx264 @ 0x7f96f9707180] ref P L0: 73.0% 11.1%  9.5%  5.8%  0.6%\n",
      "[libx264 @ 0x7f96f9707180] ref B L0: 88.4%  8.5%  3.1%\n",
      "[libx264 @ 0x7f96f9707180] ref B L1: 93.7%  6.3%\n",
      "[libx264 @ 0x7f96f9707180] kb/s:226.66\n",
      "[aac @ 0x7f96f9708540] Qavg: 1438.293\n",
      "ffmpeg version N-104465-g08a501946f-tessus  https://evermeet.cx/ffmpeg/  Copyright (c) 2000-2021 the FFmpeg developers\n",
      "  built with Apple clang version 11.0.0 (clang-1100.0.33.17)\n",
      "  configuration: --cc=/usr/bin/clang --prefix=/opt/ffmpeg --extra-version=tessus --enable-avisynth --enable-fontconfig --enable-gpl --enable-libaom --enable-libass --enable-libbluray --enable-libdav1d --enable-libfreetype --enable-libgsm --enable-libmodplug --enable-libmp3lame --enable-libmysofa --enable-libopencore-amrnb --enable-libopencore-amrwb --enable-libopenh264 --enable-libopenjpeg --enable-libopus --enable-librubberband --enable-libshine --enable-libsnappy --enable-libsoxr --enable-libspeex --enable-libtheora --enable-libtwolame --enable-libvidstab --enable-libvmaf --enable-libvo-amrwbenc --enable-libvorbis --enable-libvpx --enable-libwebp --enable-libx264 --enable-libx265 --enable-libxavs --enable-libxvid --enable-libzimg --enable-libzmq --enable-libzvbi --enable-version3 --pkg-config-flags=--static --disable-ffplay\n",
      "  libavutil      57.  7.100 / 57.  7.100\n",
      "  libavcodec     59. 12.100 / 59. 12.100\n",
      "  libavformat    59.  8.100 / 59.  8.100\n",
      "  libavdevice    59.  0.101 / 59.  0.101\n",
      "  libavfilter     8. 16.101 /  8. 16.101\n",
      "  libswscale      6.  1.100 /  6.  1.100\n",
      "  libswresample   4.  0.100 /  4.  0.100\n",
      "  libpostproc    56.  0.100 / 56.  0.100\n",
      "Input #0, mov,mp4,m4a,3gp,3g2,mj2, from 'EX1_output.mp4':\n",
      "  Metadata:\n",
      "    major_brand     : isom\n",
      "    minor_version   : 512\n",
      "    compatible_brands: isomiso2avc1mp41\n",
      "    encoder         : Lavf59.8.100\n",
      "  Duration: 00:00:30.00, start: 0.000000, bitrate: 1672 kb/s\n",
      "  Stream #0:0[0x1](und): Video: h264 (High) (avc1 / 0x31637661), yuv420p(tv, bt709, progressive), 1280x720 [SAR 1:1 DAR 16:9], 1324 kb/s, 24 fps, 24 tbr, 12288 tbn (default)\n",
      "    Metadata:\n",
      "      handler_name    : VideoHandler\n",
      "      vendor_id       : [0][0][0][0]\n",
      "  Stream #0:1[0x2](und): Audio: aac (LC) (mp4a / 0x6134706D), 48000 Hz, 5.1, fltp, 342 kb/s (default)\n",
      "    Metadata:\n",
      "      handler_name    : SoundHandler\n",
      "      vendor_id       : [0][0][0][0]\n",
      "Stream mapping:\n",
      "  Stream #0:0 -> #0:0 (h264 (native) -> h264 (libx264))\n",
      "  Stream #0:1 -> #0:1 (aac (native) -> aac (native))\n",
      "Press [q] to stop, [?] for help\n",
      "[libx264 @ 0x7fd16d806a40] using SAR=4/3\n",
      "[libx264 @ 0x7fd16d806a40] using cpu capabilities: MMX2 SSE2Fast SSSE3 SSE4.2 AVX FMA3 BMI2 AVX2\n",
      "[libx264 @ 0x7fd16d806a40] profile High, level 1.1, 4:2:0, 8-bit\n",
      "[libx264 @ 0x7fd16d806a40] 264 - core 164 r3075 66a5bc1 - H.264/MPEG-4 AVC codec - Copyleft 2003-2021 - http://www.videolan.org/x264.html - options: cabac=1 ref=3 deblock=1:0:0 analyse=0x3:0x113 me=hex subme=7 psy=1 psy_rd=1.00:0.00 mixed_ref=1 me_range=16 chroma_me=1 trellis=1 8x8dct=1 cqm=0 deadzone=21,11 fast_pskip=1 chroma_qp_offset=-2 threads=4 lookahead_threads=1 sliced_threads=0 nr=0 decimate=1 interlaced=0 bluray_compat=0 constrained_intra=0 bframes=3 b_pyramid=2 b_adapt=1 b_bias=0 direct=1 weightb=1 open_gop=0 weightp=2 keyint=250 keyint_min=24 scenecut=40 intra_refresh=0 rc_lookahead=40 rc=crf mbtree=1 crf=23.0 qcomp=0.60 qpmin=0 qpmax=69 qpstep=4 ip_ratio=1.40 aq=1:1.00\n",
      "Output #0, mp4, to 'EX3_160x120.mp4':\n",
      "  Metadata:\n",
      "    major_brand     : isom\n",
      "    minor_version   : 512\n",
      "    compatible_brands: isomiso2avc1mp41\n",
      "    encoder         : Lavf59.8.100\n",
      "  Stream #0:0(und): Video: h264 (avc1 / 0x31637661), yuv420p(tv, bt709, progressive), 160x120 [SAR 4:3 DAR 16:9], q=2-31, 24 fps, 12288 tbn (default)\n",
      "    Metadata:\n",
      "      handler_name    : VideoHandler\n",
      "      vendor_id       : [0][0][0][0]\n",
      "      encoder         : Lavc59.12.100 libx264\n",
      "    Side data:\n",
      "      cpb: bitrate max/min/avg: 0/0/0 buffer size: 0 vbv_delay: N/A\n",
      "  Stream #0:1(und): Audio: aac (LC) (mp4a / 0x6134706D), 48000 Hz, 5.1, fltp, 341 kb/s (default)\n",
      "    Metadata:\n",
      "      handler_name    : SoundHandler\n",
      "      vendor_id       : [0][0][0][0]\n",
      "      encoder         : Lavc59.12.100 aac\n"
     ]
    },
    {
     "name": "stderr",
     "output_type": "stream",
     "text": [
      "frame=  720 fps=169 q=-1.0 Lsize=    1523kB time=00:00:30.01 bitrate= 415.7kbits/s speed=7.05x    \n",
      "video:249kB audio:1254kB subtitle:0kB other streams:0kB global headers:0kB muxing overhead: 1.342471%\n",
      "[libx264 @ 0x7fd16d806a40] frame I:8     Avg QP:17.68  size:  3867\n",
      "[libx264 @ 0x7fd16d806a40] frame P:386   Avg QP:23.15  size:   520\n",
      "[libx264 @ 0x7fd16d806a40] frame B:326   Avg QP:26.13  size:    69\n",
      "[libx264 @ 0x7fd16d806a40] consecutive B-frames: 32.2% 21.1%  3.3% 43.3%\n",
      "[libx264 @ 0x7fd16d806a40] mb I  I16..4: 13.6% 52.8% 33.6%\n",
      "[libx264 @ 0x7fd16d806a40] mb P  I16..4:  0.4%  1.3%  0.4%  P16..4: 34.9% 13.4% 10.8%  0.0%  0.0%    skip:38.7%\n",
      "[libx264 @ 0x7fd16d806a40] mb B  I16..4:  0.3%  0.3%  0.1%  B16..8: 22.1%  1.7%  0.7%  direct: 1.2%  skip:73.5%  L0:31.4% L1:59.9% BI: 8.7%\n",
      "[libx264 @ 0x7fd16d806a40] 8x8 transform intra:55.5% inter:51.5%\n",
      "[libx264 @ 0x7fd16d806a40] coded y,uvDC,uvAC intra: 42.0% 53.3% 38.2% inter: 15.6% 13.0% 4.6%\n",
      "[libx264 @ 0x7fd16d806a40] i16 v,h,dc,p: 33% 23% 30% 14%\n",
      "[libx264 @ 0x7fd16d806a40] i8 v,h,dc,ddl,ddr,vr,hd,vl,hu: 19% 14% 49%  2%  3%  3%  3%  2%  4%\n",
      "[libx264 @ 0x7fd16d806a40] i4 v,h,dc,ddl,ddr,vr,hd,vl,hu: 24% 15% 16%  5%  8%  7%  8%  8%  9%\n",
      "[libx264 @ 0x7fd16d806a40] i8c dc,h,v,p: 68% 16% 11%  6%\n",
      "[libx264 @ 0x7fd16d806a40] Weighted P-Frames: Y:8.3% UV:3.4%\n",
      "[libx264 @ 0x7fd16d806a40] ref P L0: 78.2% 10.9%  7.1%  3.5%  0.3%\n",
      "[libx264 @ 0x7fd16d806a40] ref B L0: 83.4% 12.5%  4.1%\n",
      "[libx264 @ 0x7fd16d806a40] ref B L1: 91.3%  8.7%\n",
      "[libx264 @ 0x7fd16d806a40] kb/s:67.76\n",
      "[aac @ 0x7fd16d807b80] Qavg: 1438.293\n"
     ]
    },
    {
     "data": {
      "text/plain": [
       "(None, None)"
      ]
     },
     "execution_count": 7,
     "metadata": {},
     "output_type": "execute_result"
    }
   ],
   "source": [
    "ff = ffmpy.FFmpeg(\n",
    "        inputs={'EX1_output.mp4': None},\n",
    "        outputs={'EX3_720.mp4': '-vf scale=1280:720'}\n",
    "    )\n",
    "ff.cmd\n",
    "ff.run()\n",
    "ff = ffmpy.FFmpeg(\n",
    "        inputs={'EX1_output.mp4': None},\n",
    "        outputs={'EX3_489.mp4': '-vf scale=720:480'}\n",
    "    )\n",
    "ff.cmd\n",
    "ff.run()\n",
    "ff = ffmpy.FFmpeg(\n",
    "        inputs={'EX1_output.mp4': None},\n",
    "        outputs={'EX3_360x240.mp4': '-vf scale=360:240'}\n",
    "    )\n",
    "ff.cmd\n",
    "ff.run()\n",
    "ff = ffmpy.FFmpeg(\n",
    "        inputs={'EX1_output.mp4': None},\n",
    "        outputs={'EX3_160x120.mp4': '-vf scale=160:120'}\n",
    "    )\n",
    "ff.cmd\n",
    "ff.run()"
   ]
  },
  {
   "cell_type": "markdown",
   "id": "80c10ad1",
   "metadata": {},
   "source": [
    "## Exercise 4."
   ]
  },
  {
   "cell_type": "markdown",
   "id": "3f4f2872",
   "metadata": {},
   "source": [
    "**Create a script which can change the audio\n",
    "into mono output and in a different audio codec**\n",
    "\n",
    "Aquest exercici constara de dues parts. Primer passarem el video a mono utilitzant _-ac_ trobat a https://www.codegrepper.com/code-examples/whatever/stereo+to+mono+ffmpeg. Després utilitzem _-acodec_ trobat a la pàgina de _FFmpeg_. "
   ]
  },
  {
   "cell_type": "code",
   "execution_count": 8,
   "id": "96f4b235",
   "metadata": {},
   "outputs": [
    {
     "name": "stderr",
     "output_type": "stream",
     "text": [
      "ffmpeg version N-104465-g08a501946f-tessus  https://evermeet.cx/ffmpeg/  Copyright (c) 2000-2021 the FFmpeg developers\n",
      "  built with Apple clang version 11.0.0 (clang-1100.0.33.17)\n",
      "  configuration: --cc=/usr/bin/clang --prefix=/opt/ffmpeg --extra-version=tessus --enable-avisynth --enable-fontconfig --enable-gpl --enable-libaom --enable-libass --enable-libbluray --enable-libdav1d --enable-libfreetype --enable-libgsm --enable-libmodplug --enable-libmp3lame --enable-libmysofa --enable-libopencore-amrnb --enable-libopencore-amrwb --enable-libopenh264 --enable-libopenjpeg --enable-libopus --enable-librubberband --enable-libshine --enable-libsnappy --enable-libsoxr --enable-libspeex --enable-libtheora --enable-libtwolame --enable-libvidstab --enable-libvmaf --enable-libvo-amrwbenc --enable-libvorbis --enable-libvpx --enable-libwebp --enable-libx264 --enable-libx265 --enable-libxavs --enable-libxvid --enable-libzimg --enable-libzmq --enable-libzvbi --enable-version3 --pkg-config-flags=--static --disable-ffplay\n",
      "  libavutil      57.  7.100 / 57.  7.100\n",
      "  libavcodec     59. 12.100 / 59. 12.100\n",
      "  libavformat    59.  8.100 / 59.  8.100\n",
      "  libavdevice    59.  0.101 / 59.  0.101\n",
      "  libavfilter     8. 16.101 /  8. 16.101\n",
      "  libswscale      6.  1.100 /  6.  1.100\n",
      "  libswresample   4.  0.100 /  4.  0.100\n",
      "  libpostproc    56.  0.100 / 56.  0.100\n",
      "Input #0, mov,mp4,m4a,3gp,3g2,mj2, from 'EX1_output.mp4':\n",
      "  Metadata:\n",
      "    major_brand     : isom\n",
      "    minor_version   : 512\n",
      "    compatible_brands: isomiso2avc1mp41\n",
      "    encoder         : Lavf59.8.100\n",
      "  Duration: 00:00:30.00, start: 0.000000, bitrate: 1672 kb/s\n",
      "  Stream #0:0[0x1](und): Video: h264 (High) (avc1 / 0x31637661), yuv420p(tv, bt709, progressive), 1280x720 [SAR 1:1 DAR 16:9], 1324 kb/s, 24 fps, 24 tbr, 12288 tbn (default)\n",
      "    Metadata:\n",
      "      handler_name    : VideoHandler\n",
      "      vendor_id       : [0][0][0][0]\n",
      "  Stream #0:1[0x2](und): Audio: aac (LC) (mp4a / 0x6134706D), 48000 Hz, 5.1, fltp, 342 kb/s (default)\n",
      "    Metadata:\n",
      "      handler_name    : SoundHandler\n",
      "      vendor_id       : [0][0][0][0]\n",
      "Stream mapping:\n",
      "  Stream #0:0 -> #0:0 (h264 (native) -> h264 (libx264))\n",
      "  Stream #0:1 -> #0:1 (aac (native) -> aac (native))\n",
      "Press [q] to stop, [?] for help\n",
      "[libx264 @ 0x7f918e811340] using SAR=1/1\n",
      "[libx264 @ 0x7f918e811340] using cpu capabilities: MMX2 SSE2Fast SSSE3 SSE4.2 AVX FMA3 BMI2 AVX2\n",
      "[libx264 @ 0x7f918e811340] profile High, level 3.1, 4:2:0, 8-bit\n",
      "[libx264 @ 0x7f918e811340] 264 - core 164 r3075 66a5bc1 - H.264/MPEG-4 AVC codec - Copyleft 2003-2021 - http://www.videolan.org/x264.html - options: cabac=1 ref=3 deblock=1:0:0 analyse=0x3:0x113 me=hex subme=7 psy=1 psy_rd=1.00:0.00 mixed_ref=1 me_range=16 chroma_me=1 trellis=1 8x8dct=1 cqm=0 deadzone=21,11 fast_pskip=1 chroma_qp_offset=-2 threads=6 lookahead_threads=1 sliced_threads=0 nr=0 decimate=1 interlaced=0 bluray_compat=0 constrained_intra=0 bframes=3 b_pyramid=2 b_adapt=1 b_bias=0 direct=1 weightb=1 open_gop=0 weightp=2 keyint=250 keyint_min=24 scenecut=40 intra_refresh=0 rc_lookahead=40 rc=crf mbtree=1 crf=23.0 qcomp=0.60 qpmin=0 qpmax=69 qpstep=4 ip_ratio=1.40 aq=1:1.00\n",
      "Output #0, mp4, to 'EX4_mono.mp4':\n",
      "  Metadata:\n",
      "    major_brand     : isom\n",
      "    minor_version   : 512\n",
      "    compatible_brands: isomiso2avc1mp41\n",
      "    encoder         : Lavf59.8.100\n",
      "  Stream #0:0(und): Video: h264 (avc1 / 0x31637661), yuv420p(tv, bt709, progressive), 1280x720 [SAR 1:1 DAR 16:9], q=2-31, 24 fps, 12288 tbn (default)\n",
      "    Metadata:\n",
      "      handler_name    : VideoHandler\n",
      "      vendor_id       : [0][0][0][0]\n",
      "      encoder         : Lavc59.12.100 libx264\n",
      "    Side data:\n",
      "      cpb: bitrate max/min/avg: 0/0/0 buffer size: 0 vbv_delay: N/A\n",
      "  Stream #0:1(und): Audio: aac (LC) (mp4a / 0x6134706D), 48000 Hz, mono, fltp, 69 kb/s (default)\n",
      "    Metadata:\n",
      "      handler_name    : SoundHandler\n",
      "      vendor_id       : [0][0][0][0]\n",
      "      encoder         : Lavc59.12.100 aac\n",
      "frame=  720 fps= 29 q=-1.0 Lsize=    4809kB time=00:00:30.01 bitrate=1312.5kbits/s speed=1.21x    \n",
      "video:4532kB audio:255kB subtitle:0kB other streams:0kB global headers:0kB muxing overhead: 0.450353%\n",
      "[libx264 @ 0x7f918e811340] frame I:5     Avg QP:14.93  size:125643\n",
      "[libx264 @ 0x7f918e811340] frame P:219   Avg QP:20.13  size: 14305\n",
      "[libx264 @ 0x7f918e811340] frame B:496   Avg QP:24.37  size:  1772\n",
      "[libx264 @ 0x7f918e811340] consecutive B-frames:  3.5% 11.1%  8.8% 76.7%\n",
      "[libx264 @ 0x7f918e811340] mb I  I16..4: 33.0% 20.8% 46.2%\n",
      "[libx264 @ 0x7f918e811340] mb P  I16..4:  3.0%  7.3%  0.6%  P16..4: 28.9% 11.6%  7.8%  0.0%  0.0%    skip:40.9%\n",
      "[libx264 @ 0x7f918e811340] mb B  I16..4:  1.0%  0.4%  0.0%  B16..8: 28.6%  1.3%  0.1%  direct: 1.0%  skip:67.5%  L0:45.1% L1:49.7% BI: 5.2%\n",
      "[libx264 @ 0x7f918e811340] 8x8 transform intra:52.3% inter:56.0%\n",
      "[libx264 @ 0x7f918e811340] coded y,uvDC,uvAC intra: 21.8% 34.0% 12.2% inter: 6.2% 8.7% 0.9%\n",
      "[libx264 @ 0x7f918e811340] i16 v,h,dc,p: 58% 22%  9% 11%\n",
      "[libx264 @ 0x7f918e811340] i8 v,h,dc,ddl,ddr,vr,hd,vl,hu: 26% 15% 46%  2%  2%  2%  2%  2%  2%\n",
      "[libx264 @ 0x7f918e811340] i4 v,h,dc,ddl,ddr,vr,hd,vl,hu: 20% 16% 15%  7%  9%  9%  8%  9%  8%\n",
      "[libx264 @ 0x7f918e811340] i8c dc,h,v,p: 62% 19% 14%  5%\n",
      "[libx264 @ 0x7f918e811340] Weighted P-Frames: Y:11.0% UV:7.3%\n",
      "[libx264 @ 0x7f918e811340] ref P L0: 67.2% 15.4% 13.3%  3.9%  0.1%\n",
      "[libx264 @ 0x7f918e811340] ref B L0: 88.3%  9.9%  1.9%\n",
      "[libx264 @ 0x7f918e811340] ref B L1: 95.5%  4.5%\n",
      "[libx264 @ 0x7f918e811340] kb/s:1237.40\n",
      "[aac @ 0x7f918e806740] Qavg: 538.274\n",
      "ffmpeg version N-104465-g08a501946f-tessus  https://evermeet.cx/ffmpeg/  Copyright (c) 2000-2021 the FFmpeg developers\n",
      "  built with Apple clang version 11.0.0 (clang-1100.0.33.17)\n",
      "  configuration: --cc=/usr/bin/clang --prefix=/opt/ffmpeg --extra-version=tessus --enable-avisynth --enable-fontconfig --enable-gpl --enable-libaom --enable-libass --enable-libbluray --enable-libdav1d --enable-libfreetype --enable-libgsm --enable-libmodplug --enable-libmp3lame --enable-libmysofa --enable-libopencore-amrnb --enable-libopencore-amrwb --enable-libopenh264 --enable-libopenjpeg --enable-libopus --enable-librubberband --enable-libshine --enable-libsnappy --enable-libsoxr --enable-libspeex --enable-libtheora --enable-libtwolame --enable-libvidstab --enable-libvmaf --enable-libvo-amrwbenc --enable-libvorbis --enable-libvpx --enable-libwebp --enable-libx264 --enable-libx265 --enable-libxavs --enable-libxvid --enable-libzimg --enable-libzmq --enable-libzvbi --enable-version3 --pkg-config-flags=--static --disable-ffplay\n",
      "  libavutil      57.  7.100 / 57.  7.100\n",
      "  libavcodec     59. 12.100 / 59. 12.100\n",
      "  libavformat    59.  8.100 / 59.  8.100\n",
      "  libavdevice    59.  0.101 / 59.  0.101\n",
      "  libavfilter     8. 16.101 /  8. 16.101\n",
      "  libswscale      6.  1.100 /  6.  1.100\n",
      "  libswresample   4.  0.100 /  4.  0.100\n",
      "  libpostproc    56.  0.100 / 56.  0.100\n",
      "Input #0, mov,mp4,m4a,3gp,3g2,mj2, from 'EX4_mono.mp4':\n",
      "  Metadata:\n",
      "    major_brand     : isom\n",
      "    minor_version   : 512\n",
      "    compatible_brands: isomiso2avc1mp41\n",
      "    encoder         : Lavf59.8.100\n",
      "  Duration: 00:00:30.02, start: 0.000000, bitrate: 1312 kb/s\n",
      "  Stream #0:0[0x1](und): Video: h264 (High) (avc1 / 0x31637661), yuv420p(tv, bt709, progressive), 1280x720 [SAR 1:1 DAR 16:9], 1237 kb/s, 24 fps, 24 tbr, 12288 tbn (default)\n",
      "    Metadata:\n",
      "      handler_name    : VideoHandler\n",
      "      vendor_id       : [0][0][0][0]\n",
      "  Stream #0:1[0x2](und): Audio: aac (LC) (mp4a / 0x6134706D), 48000 Hz, mono, fltp, 69 kb/s (default)\n",
      "    Metadata:\n",
      "      handler_name    : SoundHandler\n",
      "      vendor_id       : [0][0][0][0]\n",
      "Stream mapping:\n",
      "  Stream #0:0 -> #0:0 (h264 (native) -> h264 (libx264))\n",
      "  Stream #0:1 -> #0:1 (aac (native) -> mp3 (libmp3lame))\n",
      "Press [q] to stop, [?] for help\n",
      "[libx264 @ 0x7fb20f7072c0] using SAR=1/1\n",
      "[libx264 @ 0x7fb20f7072c0] using cpu capabilities: MMX2 SSE2Fast SSSE3 SSE4.2 AVX FMA3 BMI2 AVX2\n",
      "[libx264 @ 0x7fb20f7072c0] profile High, level 3.1, 4:2:0, 8-bit\n",
      "[libx264 @ 0x7fb20f7072c0] 264 - core 164 r3075 66a5bc1 - H.264/MPEG-4 AVC codec - Copyleft 2003-2021 - http://www.videolan.org/x264.html - options: cabac=1 ref=3 deblock=1:0:0 analyse=0x3:0x113 me=hex subme=7 psy=1 psy_rd=1.00:0.00 mixed_ref=1 me_range=16 chroma_me=1 trellis=1 8x8dct=1 cqm=0 deadzone=21,11 fast_pskip=1 chroma_qp_offset=-2 threads=6 lookahead_threads=1 sliced_threads=0 nr=0 decimate=1 interlaced=0 bluray_compat=0 constrained_intra=0 bframes=3 b_pyramid=2 b_adapt=1 b_bias=0 direct=1 weightb=1 open_gop=0 weightp=2 keyint=250 keyint_min=24 scenecut=40 intra_refresh=0 rc_lookahead=40 rc=crf mbtree=1 crf=23.0 qcomp=0.60 qpmin=0 qpmax=69 qpstep=4 ip_ratio=1.40 aq=1:1.00\n",
      "Output #0, mp4, to 'EX4_codec_mp3.mp4':\n",
      "  Metadata:\n",
      "    major_brand     : isom\n",
      "    minor_version   : 512\n",
      "    compatible_brands: isomiso2avc1mp41\n",
      "    encoder         : Lavf59.8.100\n",
      "  Stream #0:0(und): Video: h264 (avc1 / 0x31637661), yuv420p(tv, bt709, progressive), 1280x720 [SAR 1:1 DAR 16:9], q=2-31, 24 fps, 12288 tbn (default)\n",
      "    Metadata:\n",
      "      handler_name    : VideoHandler\n",
      "      vendor_id       : [0][0][0][0]\n",
      "      encoder         : Lavc59.12.100 libx264\n",
      "    Side data:\n",
      "      cpb: bitrate max/min/avg: 0/0/0 buffer size: 0 vbv_delay: N/A\n",
      "  Stream #0:1(und): Audio: mp3 (mp4a / 0x6134706D), 48000 Hz, mono, fltp (default)\n",
      "    Metadata:\n",
      "      handler_name    : SoundHandler\n",
      "      vendor_id       : [0][0][0][0]\n",
      "      encoder         : Lavc59.12.100 libmp3lame\n"
     ]
    },
    {
     "name": "stderr",
     "output_type": "stream",
     "text": [
      "frame=  720 fps= 30 q=-1.0 Lsize=    4583kB time=00:00:30.02 bitrate=1250.5kbits/s speed=1.23x    \n",
      "video:4329kB audio:235kB subtitle:0kB other streams:0kB global headers:0kB muxing overhead: 0.430613%\n",
      "[libx264 @ 0x7fb20f7072c0] frame I:5     Avg QP:14.84  size:125417\n",
      "[libx264 @ 0x7fb20f7072c0] frame P:221   Avg QP:20.08  size: 13446\n",
      "[libx264 @ 0x7fb20f7072c0] frame B:494   Avg QP:24.23  size:  1687\n",
      "[libx264 @ 0x7fb20f7072c0] consecutive B-frames:  3.5% 12.2%  8.8% 75.6%\n",
      "[libx264 @ 0x7fb20f7072c0] mb I  I16..4: 33.6% 20.2% 46.2%\n",
      "[libx264 @ 0x7fb20f7072c0] mb P  I16..4:  2.9%  7.5%  0.6%  P16..4: 29.0% 11.1%  7.3%  0.0%  0.0%    skip:41.5%\n",
      "[libx264 @ 0x7fb20f7072c0] mb B  I16..4:  1.0%  0.3%  0.0%  B16..8: 27.9%  1.2%  0.1%  direct: 0.9%  skip:68.5%  L0:45.0% L1:50.0% BI: 5.0%\n",
      "[libx264 @ 0x7fb20f7072c0] 8x8 transform intra:53.8% inter:58.0%\n",
      "[libx264 @ 0x7fb20f7072c0] coded y,uvDC,uvAC intra: 21.7% 34.4% 12.1% inter: 5.8% 8.6% 0.8%\n",
      "[libx264 @ 0x7fb20f7072c0] i16 v,h,dc,p: 58% 22% 10% 11%\n",
      "[libx264 @ 0x7fb20f7072c0] i8 v,h,dc,ddl,ddr,vr,hd,vl,hu: 26% 15% 46%  2%  2%  2%  2%  2%  2%\n",
      "[libx264 @ 0x7fb20f7072c0] i4 v,h,dc,ddl,ddr,vr,hd,vl,hu: 20% 16% 14%  7%  9%  9%  8%  9%  8%\n",
      "[libx264 @ 0x7fb20f7072c0] i8c dc,h,v,p: 62% 19% 14%  5%\n",
      "[libx264 @ 0x7fb20f7072"
     ]
    },
    {
     "data": {
      "text/plain": [
       "(None, None)"
      ]
     },
     "execution_count": 8,
     "metadata": {},
     "output_type": "execute_result"
    },
    {
     "name": "stderr",
     "output_type": "stream",
     "text": [
      "c0] Weighted P-Frames: Y:11.3% UV:7.7%\n",
      "[libx264 @ 0x7fb20f7072c0] ref P L0: 68.0% 15.7% 12.4%  3.8%  0.1%\n",
      "[libx264 @ 0x7fb20f7072c0] ref B L0: 88.6%  9.6%  1.8%\n",
      "[libx264 @ 0x7fb20f7072c0] ref B L1: 95.8%  4.2%\n",
      "[libx264 @ 0x7fb20f7072c0] kb/s:1181.94\n"
     ]
    }
   ],
   "source": [
    "ff = ffmpy.FFmpeg(\n",
    "        inputs={'EX1_output.mp4': None},\n",
    "        outputs={'EX4_mono.mp4': '-ac 1'}\n",
    "    )\n",
    "ff.cmd\n",
    "ff.run()\n",
    "ff2 = ffmpy.FFmpeg(\n",
    "        inputs={'EX4_mono.mp4': None},\n",
    "        outputs={'EX4_codec_mp3.mp4': '-acodec mp3'}\n",
    "    )\n",
    "ff2.cmd\n",
    "ff2.run()"
   ]
  },
  {
   "cell_type": "markdown",
   "id": "d2e967ee",
   "metadata": {},
   "source": [
    "## Exercise 5."
   ]
  },
  {
   "cell_type": "markdown",
   "id": "7bb70da0",
   "metadata": {},
   "source": [
    "**Integrate the exercices you’ve done inside\n",
    "a Python script, or do a Python script able to\n",
    "launch any of the other exercices. Feel free to\n",
    "create whatever you want!**"
   ]
  }
 ],
 "metadata": {
  "kernelspec": {
   "display_name": "Python 3 (ipykernel)",
   "language": "python",
   "name": "python3"
  },
  "language_info": {
   "codemirror_mode": {
    "name": "ipython",
    "version": 3
   },
   "file_extension": ".py",
   "mimetype": "text/x-python",
   "name": "python",
   "nbconvert_exporter": "python",
   "pygments_lexer": "ipython3",
   "version": "3.8.12"
  }
 },
 "nbformat": 4,
 "nbformat_minor": 5
}
